<?xml version="1.0" standalone="no"?>
<!DOCTYPE svg PUBLIC "-//W3C//DTD SVG 1.1//EN" "http://www.w3.org/Graphics/SVG/1.1/DTD/svg11.dtd" >
<svg xmlns="http://www.w3.org/2000/svg">
<metadata>Generated by IcoMoon</metadata>
<defs>
<font id="poshare" horiz-adv-x="1024">
<font-face units-per-em="1024" ascent="870.4" descent="-153.6" />
<missing-glyph horiz-adv-x="1024" />
<glyph unicode="&#x20;" horiz-adv-x="0" d="" />
<glyph unicode="&#xe800;" glyph-name="cw" horiz-adv-x="878" d="M877.568 717.568v-256q0-14.336-10.24-25.6t-26.624-11.264h-256q-23.552 0-32.768 23.552-10.24 22.528 7.168 38.912l78.848 78.848q-83.968 78.848-198.656 78.848-59.392 0-113.664-23.552t-93.184-62.464-63.488-93.184-22.528-113.664 22.528-113.664 63.488-93.184 93.184-62.464 113.664-23.552q67.584 0 128 29.696t102.4 83.968q4.096 6.144 13.312 7.168 8.192 0 14.336-5.12l77.824-78.848q5.12-4.096 6.144-11.264t-5.12-13.312q-61.44-75.776-150.528-116.736t-186.368-41.984q-89.088 0-171.008 34.816t-139.264 94.208-94.208 140.288-34.816 169.984 34.816 169.984 94.208 140.288 139.264 94.208 171.008 34.816q83.968 0 161.792-31.744t140.288-90.112l73.728 73.728q16.384 18.432 39.936 8.192 22.528-9.216 22.528-33.792z" />
<glyph unicode="&#xe801;" glyph-name="ccw" horiz-adv-x="878" d="M877.568 352q0-89.088-34.816-169.984t-93.184-140.288-140.288-94.208-169.984-34.816q-98.304 0-187.392 41.984t-150.528 116.736q-4.096 6.144-4.096 13.312t5.12 11.264l77.824 78.848q6.144 5.12 14.336 5.12 9.216-1.024 13.312-7.168 41.984-54.272 102.4-83.968t129.024-29.696q59.392 0 112.64 23.552t94.208 62.464 62.464 93.184 22.528 113.664-22.528 113.664-62.464 93.184-94.208 62.464-112.64 23.552q-56.32 0-107.52-20.48t-92.16-58.368l78.848-78.848q17.408-16.384 8.192-38.912-10.24-23.552-33.792-23.552h-256q-15.36 0-25.6 11.264t-11.264 25.6v256q0 24.576 22.528 33.792 22.528 10.24 39.936-8.192l73.728-73.728q61.44 58.368 140.288 90.112t162.816 31.744q89.088 0 169.984-34.816t140.288-94.208 93.184-140.288 34.816-169.984z" />
<glyph unicode="&#xe802;" glyph-name="right-open" horiz-adv-x="731" d="M632.832 363.264l-423.936-424.96q-11.264-10.24-25.6-10.24t-26.624 10.24l-94.208 95.232q-11.264 11.264-11.264 25.6t11.264 25.6l303.104 304.128-303.104 303.104q-11.264 11.264-11.264 25.6t11.264 25.6l94.208 95.232q11.264 10.24 26.624 10.24t25.6-10.24l423.936-423.936q10.24-11.264 10.24-25.6t-10.24-25.6z" />
<glyph unicode="&#xe803;" glyph-name="left-open" horiz-adv-x="731" d="M668.672 691.968l-303.104-303.104 303.104-304.128q11.264-10.24 11.264-25.6t-11.264-25.6l-94.208-95.232q-11.264-10.24-25.6-10.24t-25.6 10.24l-423.936 424.96q-11.264 10.24-11.264 25.6t11.264 25.6l423.936 423.936q10.24 10.24 25.6 10.24t25.6-10.24l94.208-95.232q11.264-10.24 11.264-25.6t-11.264-25.6z" />
<glyph unicode="&#xe804;" glyph-name="like" d="M759.808 833.28c141.312 0 233.472-75.776 233.472-231.424 0-62.464-21.504-133.12-61.44-210.944-43.008-83.968-105.472-174.080-183.296-265.216-54.272-64.512-111.616-124.928-169.984-182.272-20.48-19.456-38.912-36.864-55.296-52.224-10.24-9.216-17.408-15.36-21.504-19.456h20.48c-4.096 4.096-11.264 10.24-21.504 19.456-16.384 15.36-34.816 32.768-55.296 52.224-58.368 57.344-115.712 117.76-169.984 182.272-77.824 91.136-140.288 181.248-183.296 265.216-39.936 77.824-61.44 148.48-61.44 210.944 0 155.648 92.16 231.424 233.472 231.424 128 0 204.8-69.632 232.448-234.496l15.36-91.136 15.36 91.136c27.648 164.864 104.448 234.496 232.448 234.496zM527.36 603.904c-29.696 179.2-118.784 260.096-263.168 260.096-157.696 0-264.192-88.064-264.192-262.144 0-67.584 22.528-143.36 64.512-225.28 44.032-86.016 108.544-177.152 187.392-271.36 54.272-64.512 113.664-125.952 172.032-183.296 20.48-20.48 38.912-37.888 56.32-53.248 10.24-10.24 17.408-16.384 21.504-19.456l10.24-9.216 10.24 9.216c4.096 3.072 11.264 9.216 21.504 19.456 17.408 15.36 35.84 32.768 56.32 53.248 59.392 57.344 117.76 118.784 172.032 183.296 78.848 94.208 143.36 185.344 187.392 271.36 41.984 81.92 64.512 157.696 64.512 225.28 0 174.080-106.496 262.144-264.192 262.144-143.36 0-233.472-80.896-263.168-260.096h30.72z" />
<glyph unicode="&#xe805;" glyph-name="tag" d="M650.24 864c-82.944 0-194.56-46.080-253.952-105.472l-347.136-349.184c-65.536-66.56-65.536-173.056 1.024-238.592l280.576-281.6c66.56-65.536 173.056-65.536 238.592 0l349.184 349.184c58.368 59.392 104.448 169.984 104.448 252.928l1.024 204.8c0 93.184-74.752 167.936-167.936 167.936h-205.824zM990.208 696.064l-1.024-204.8c0-73.728-41.984-176.128-95.232-229.376l-348.16-349.184c-52.224-52.224-138.24-52.224-190.464 1.024l-281.6 280.576c-53.248 52.224-53.248 138.24-1.024 190.464l348.16 350.208c52.224 52.224 154.624 95.232 229.376 95.232h205.824c74.752 0 134.144-59.392 134.144-134.144zM768 480c70.656 0 128 57.344 128 128s-57.344 128-128 128c-70.656 0-128-57.344-128-128s57.344-128 128-128zM768 692.992c47.104 0 84.992-37.888 84.992-84.992s-37.888-84.992-84.992-84.992c-47.104 0-84.992 37.888-84.992 84.992s37.888 84.992 84.992 84.992z" />
<glyph unicode="&#xe806;" glyph-name="dislike" d="M527.36 603.904c-29.696 179.2-118.784 260.096-263.168 260.096-157.696 0-264.192-88.064-264.192-262.144 0-67.584 22.528-143.36 64.512-225.28 44.032-86.016 108.544-177.152 187.392-271.36 54.272-64.512 113.664-125.952 172.032-183.296 20.48-20.48 38.912-37.888 56.32-53.248 10.24-10.24 17.408-16.384 21.504-19.456l10.24-9.216 10.24 9.216c4.096 3.072 11.264 9.216 21.504 19.456 17.408 15.36 35.84 32.768 56.32 53.248 59.392 57.344 117.76 118.784 172.032 183.296 78.848 94.208 143.36 185.344 187.392 271.36 41.984 81.92 64.512 157.696 64.512 225.28 0 174.080-106.496 262.144-264.192 262.144-143.36 0-233.472-80.896-263.168-260.096h30.72z" />
<glyph unicode="&#xe807;" glyph-name="bag" d="M128-128.256h768c70.656 0 128 57.344 128 129.024v479.232c0 70.656-57.344 128-128 128h-768c-70.656 0-128-57.344-128-128v-479.232c0-70.656 57.344-129.024 128-129.024zM31.744 480c0 53.248 43.008 96.256 96.256 96.256h768c53.248 0 96.256-43.008 96.256-96.256v-479.232c0-53.248-43.008-97.28-96.256-97.28h-768c-53.248 0-96.256 44.032-96.256 97.28v479.232zM228.352 521.984c5.12 44.032 16.384 87.040 32.768 128 46.080 114.688 129.024 182.272 259.072 182.272s211.968-67.584 259.072-182.272c16.384-40.96 26.624-83.968 32.768-128 4.096-26.624 5.12-47.104 5.12-58.368 0-8.192 6.144-15.36 15.36-15.36 8.192 0 15.36 7.168 15.36 15.36 0 4.096 0 9.216 0 17.408-1.024 14.336-3.072 28.672-5.12 45.056-6.144 46.080-17.408 93.184-34.816 136.192-51.2 125.952-144.384 201.728-287.744 201.728s-236.544-75.776-287.744-201.728c-17.408-43.008-28.672-90.112-35.84-136.192-2.048-16.384-3.072-30.72-4.096-45.056 0-8.192 0-13.312 0-17.408 0-8.192 6.144-15.36 15.36-15.36 8.192 0 15.36 7.168 15.36 15.36 0 11.264 1.024 31.744 5.12 58.368z" />
<glyph unicode="&#xe808;" glyph-name="sliders" horiz-adv-x="1117" d="M930.816 724.736h182.272v-47.104h-182.272v-93.184h-232.448v93.184h-698.368v47.104h698.368v93.184h232.448v-93.184zM372.736 352h740.352v-46.080h-740.352v-93.184h-233.472v93.184h-139.264v46.080h139.264v93.184h233.472v-93.184zM930.816-20.736h182.272v-46.080h-182.272v-93.184h-232.448v93.184h-698.368v46.080h698.368v93.184h232.448v-93.184z" />
<glyph unicode="&#xe809;" glyph-name="menu" d="M143.36 832.256h737.28c61.44 0 111.616-50.176 111.616-111.616v-705.536c0-61.44-50.176-111.616-111.616-111.616h-737.28c-61.44 0-111.616 50.176-111.616 111.616v705.536c0 61.44 50.176 111.616 111.616 111.616zM0 15.104c0-71.68 64.512-143.36 143.36-143.36h737.28c78.848 0 143.36 64.512 143.36 143.36v705.536c0 78.848-64.512 143.36-143.36 143.36h-737.28c-78.848 0-143.36-64.512-143.36-143.36v-705.536zM876.544 96h17.408v31.744h-765.952v-31.744h748.544zM876.544 352h17.408v31.744h-765.952v-31.744h748.544zM876.544 608h17.408v31.744h-765.952v-31.744h748.544z" />
<glyph unicode="&#xe80a;" glyph-name="star" horiz-adv-x="1093" d="M102.4 505.6h273.408c25.6 0 52.224 18.432 61.44 43.008l90.112 246.784c13.312 38.912 23.552 38.912 37.888 0l90.112-246.784c8.192-23.552 35.84-43.008 60.416-43.008h274.432c39.936 0 40.96-5.12 8.192-27.648l-229.376-160.768c-21.504-15.36-31.744-46.080-23.552-70.656l93.184-280.576c13.312-37.888 7.168-41.984-25.6-18.432l-229.376 159.744c-20.48 15.36-54.272 15.36-74.752 0l-229.376-159.744c-32.768-23.552-38.912-19.456-26.624 18.432l94.208 280.576c8.192 24.576-3.072 56.32-23.552 70.656l-229.376 160.768c-32.768 22.528-31.744 27.648 8.192 27.648zM304.128 289.536c8.192-6.144 13.312-22.528 10.24-32.768l-93.184-280.576c-23.552-68.608 18.432-99.328 77.824-57.344l229.376 160.768c9.216 6.144 26.624 6.144 35.84 0l229.376-160.768c59.392-41.984 100.352-11.264 77.824 57.344l-93.184 280.576c-4.096 10.24 1.024 26.624 10.24 32.768l229.376 159.744c60.416 41.984 45.056 90.112-27.648 90.112h-274.432c-10.24 0-24.576 10.24-28.672 21.504l-90.112 246.784c-24.576 68.608-76.8 67.584-102.4 0l-89.088-246.784c-4.096-11.264-18.432-21.504-29.696-21.504h-273.408c-73.728 0-88.064-47.104-27.648-90.112l229.376-159.744z" />
<glyph unicode="&#xe80b;" glyph-name="pin" horiz-adv-x="768" d="M410.624-137.472c12.288 11.264 26.624 24.576 41.984 39.936 43.008 41.984 87.040 90.112 128 141.312 116.736 147.456 187.392 294.912 187.392 434.176 0 212.992-172.032 386.048-384 386.048s-384-173.056-384-386.048c0-139.264 70.656-286.72 187.392-434.176 40.96-51.2 84.992-99.328 128-141.312 15.36-15.36 29.696-28.672 43.008-39.936 7.168-7.168 13.312-12.288 15.36-14.336l10.24-8.192 10.24 8.192c3.072 2.048 8.192 7.168 16.384 14.336zM394.24-128.256c-3.072 2.048-8.192 7.168-15.36 13.312-13.312 11.264-26.624 24.576-41.984 38.912-43.008 41.984-84.992 89.088-124.928 139.264-113.664 142.336-181.248 283.648-181.248 414.72 0 196.608 158.72 355.328 353.28 355.328 195.584 0 353.28-158.72 353.28-355.328 0-131.072-67.584-272.384-181.248-414.72-39.936-50.176-81.92-97.28-124.928-139.264-15.36-14.336-28.672-27.648-40.96-38.912-8.192-6.144-13.312-11.264-16.384-13.312h20.48zM531.456 463.616c0 79.872-64.512 144.384-144.384 144.384-78.848 0-143.36-64.512-143.36-144.384 0-78.848 64.512-143.36 143.36-143.36 79.872 0 144.384 64.512 144.384 143.36zM275.456 463.616c0 62.464 50.176 112.64 111.616 112.64 62.464 0 112.64-50.176 112.64-112.64 0-61.44-50.176-111.616-112.64-111.616-61.44 0-111.616 50.176-111.616 111.616z" />
<glyph unicode="&#xe80c;" glyph-name="up-dir" horiz-adv-x="553" d="M0 110.336l275.456 484.352 277.504-484.352h-552.96z" />
<glyph unicode="&#xe80d;" glyph-name="down-dir" horiz-adv-x="553" d="M552.96 594.688l-275.456-484.352-277.504 484.352h552.96z" />
<glyph unicode="&#xe80e;" glyph-name="facebook" horiz-adv-x="585" d="M547.84 856.832v-150.528h-89.088q-49.152 0-66.56-20.48t-17.408-61.44v-108.544h167.936l-22.528-168.96h-145.408v-434.176h-175.104v434.176h-145.408v168.96h145.408v124.928q0 106.496 59.392 164.864t158.72 58.368q83.968 0 130.048-7.168z" />
<glyph unicode="&#xe80f;" glyph-name="twitter" horiz-adv-x="950" d="M925.696 630.528q-37.888-55.296-92.16-95.232 0-8.192 0-23.552 0-74.752-21.504-148.48t-65.536-142.336-105.472-119.808-147.456-83.968-185.344-30.72q-154.624 0-282.624 82.944 19.456-3.072 44.032-3.072 129.024 0 229.376 78.848-60.416 2.048-107.52 36.864t-65.536 91.136q19.456-2.048 34.816-2.048 24.576 0 49.152 6.144-64.512 13.312-106.496 63.488t-41.984 117.76v2.048q38.912-21.504 83.968-23.552-37.888 25.6-60.416 65.536t-22.528 88.064q0 50.176 25.6 93.184 69.632-84.992 167.936-136.192t212.992-56.32q-5.12 21.504-5.12 41.984 0 76.8 54.272 130.048t130.048 54.272q80.896 0 135.168-58.368 62.464 12.288 116.736 45.056-20.48-65.536-80.896-102.4 53.248 6.144 106.496 28.672z" />
<glyph unicode="&#xe810;" glyph-name="instagram" horiz-adv-x="881" d="M706.56 352q0 26.624-6.144 51.2h180.224v-352.256q0-57.344-39.936-98.304t-97.28-40.96h-606.208q-57.344 0-97.28 40.96t-39.936 98.304v352.256h178.176q-4.096-32.768-4.096-51.2 0-108.544 77.824-187.392t188.416-78.848q108.544 0 187.392 78.848t78.848 187.392zM743.424 792.32q57.344 0 97.28-39.936t39.936-97.28v-149.504h-223.232q-79.872 112.64-217.088 112.64-141.312 0-217.088-112.64h-223.232v149.504q0 57.344 39.936 97.28t97.28 39.936h606.208zM808.96 622.336v73.728q0 24.576-24.576 24.576h-73.728q-24.576 0-24.576-24.576v-73.728q0-8.192 7.168-16.384t17.408-8.192h73.728q24.576 0 24.576 24.576zM604.16 352q0-67.584-48.128-115.712t-115.712-48.128-115.712 48.128-48.128 115.712q0 69.632 48.128 116.736t115.712 47.104 115.712-47.104 48.128-116.736z" />
<glyph unicode="&#xe811;" glyph-name="pinterest" horiz-adv-x="793" d="M0 496.384q0 64.512 27.648 128t77.824 117.76 133.12 88.064 182.272 33.792q162.816 0 267.264-100.352t104.448-236.544q0-175.104-88.064-288.768t-229.376-114.688q-46.080 0-86.016 21.504t-57.344 52.224l-40.96-161.792q-5.12-19.456-13.312-38.912t-17.408-38.912-19.456-34.816-19.456-30.72-17.408-24.576-13.312-16.384l-6.144-8.192q-3.072-4.096-8.192-3.072t-6.144 6.144q0 1.024-1.024 14.336t-3.072 27.648-3.072 38.912-1.024 45.056 3.072 49.152 7.168 49.152q11.264 48.128 75.776 320.512-8.192 16.384-13.312 39.936t-5.12 36.864l-1.024 15.36q0 65.536 33.792 109.568t79.872 43.008q37.888 0 59.392-24.576t20.48-63.488q0-23.552-8.192-57.344t-23.552-78.848-20.48-72.704q-10.24-46.080 18.432-79.872t74.752-33.792q80.896 0 134.144 92.16t52.224 221.184q0 99.328-64.512 162.816t-180.224 62.464q-129.024 0-208.896-82.944t-80.896-198.656q0-68.608 38.912-115.712 13.312-15.36 8.192-32.768-2.048-5.12-6.144-23.552t-6.144-23.552q-2.048-11.264-10.24-14.336t-18.432 0q-60.416 24.576-90.112 84.992t-30.72 139.264z" />
<glyph unicode="&#xe812;" glyph-name="star-on" d="M268.288 261.888c9.216-6.144 14.336-21.504 11.264-32.768l-94.208-280.576c-23.552-68.608 18.432-99.328 77.824-57.344l230.4 160.768c9.216 6.144 27.648 6.144 36.864 0l230.4-160.768c60.416-41.984 101.376-12.288 78.848 57.344l-94.208 280.576c-4.096 11.264 1.024 26.624 10.24 32.768l230.4 160.768c60.416 41.984 46.080 90.112-27.648 90.112h-275.456c-11.264 0-25.6 10.24-28.672 20.48l-91.136 247.808c-24.576 68.608-77.824 67.584-102.4 0l-90.112-247.808c-4.096-11.264-18.432-20.48-29.696-20.48h-275.456c-73.728 0-88.064-48.128-27.648-90.112l230.4-160.768z" />
<glyph unicode="&#xe813;" glyph-name="search" horiz-adv-x="808" d="M790.528 73.472q30.72-34.816 6.144-63.488l-47.104-47.104q-36.864-32.768-69.632 0l-194.56 194.56q-75.776-43.008-159.744-43.008-131.072 0-228.352 97.28t-97.28 228.352 92.16 224.256 223.232 93.184 229.376-97.28 98.304-228.352q0-90.112-47.104-165.888zM96.256 440.064q0-90.112 69.632-159.744t159.744-69.632 154.624 64.512 64.512 156.672q0 90.112-69.632 158.72t-159.744 68.608-154.624-64.512-64.512-154.624z" />
<glyph unicode="&#xe814;" glyph-name="date" d="M939.008 767.744h-139.264v64.512c0 17.408-14.336 31.744-31.744 31.744s-31.744-14.336-31.744-31.744v-64.512h-192.512v64.512c0 17.408-14.336 31.744-31.744 31.744s-31.744-14.336-31.744-31.744v-64.512h-192.512v64.512c0 17.408-14.336 31.744-31.744 31.744s-31.744-14.336-31.744-31.744v-64.512h-139.264c-47.104 0-84.992-37.888-84.992-84.992v-757.76c0-47.104 37.888-84.992 84.992-84.992h854.016c47.104 0 84.992 37.888 84.992 84.992v757.76c0 47.104-37.888 84.992-84.992 84.992zM960.512-75.008c0-11.264-10.24-21.504-21.504-21.504h-854.016c-11.264 0-20.48 10.24-20.48 21.504v757.76c0 11.264 9.216 21.504 20.48 21.504h139.264v-64.512c0-17.408 14.336-31.744 31.744-31.744s31.744 14.336 31.744 31.744v64.512h192.512v-64.512c0-17.408 14.336-31.744 31.744-31.744s31.744 14.336 31.744 31.744v64.512h192.512v-64.512c0-17.408 14.336-31.744 31.744-31.744s31.744 14.336 31.744 31.744v64.512h139.264c11.264 0 21.504-10.24 21.504-21.504v-757.76zM224.256 480h128v-96.256h-128zM224.256 320.256h128v-96.256h-128zM224.256 160.512h128v-96.256h-128zM448.512 160.512h128v-96.256h-128zM448.512 320.256h128v-96.256h-128zM448.512 480h128v-96.256h-128zM671.744 160.512h128v-96.256h-128zM671.744 320.256h128v-96.256h-128zM671.744 480h128v-96.256h-128z" />
<glyph unicode="&#xe900;" glyph-name="left-thin-open" d="M711.219-21.402c13.722-13.926 13.722-36.301 0-50.125s-35.891-13.875-49.613 0l-400.896 404.89c-13.722 13.824-13.722 36.198 0 50.125l400.896 404.89c13.722 13.824 35.891 13.824 49.613 0 13.722-13.875 13.722-36.301 0-50.125l-365.619-379.853 365.619-379.802z" />
<glyph unicode="&#xe901;" glyph-name="right-thin-open" d="M678.4 358.4l-365.619 379.904c-13.722 13.824-13.722 36.198 0 50.125 13.722 13.824 35.891 13.824 49.613 0l400.896-404.89c13.722-13.875 13.722-36.301 0-50.125l-400.896-404.89c-13.722-13.875-35.891-13.824-49.613 0-13.722 13.773-13.722 36.198 0 50.125l365.619 379.75z" />
</font>
</defs>
</svg>
